<?xml version="1.0" encoding="UTF-8" standalone="no"?>
<!-- Created with Inkscape (http://www.inkscape.org/) -->
<svg
   xmlns:dc="http://purl.org/dc/elements/1.1/"
   xmlns:cc="http://web.resource.org/cc/"
   xmlns:rdf="http://www.w3.org/1999/02/22-rdf-syntax-ns#"
   xmlns:svg="http://www.w3.org/2000/svg"
   xmlns="http://www.w3.org/2000/svg"
   xmlns:sodipodi="http://sodipodi.sourceforge.net/DTD/sodipodi-0.dtd"
   xmlns:inkscape="http://www.inkscape.org/namespaces/inkscape"
   width="300"
   height="700"
   id="svg2"
   sodipodi:version="0.32"
   inkscape:version="0.45.1"
   sodipodi:docbase="/home/alexanderfb/My Documents/My Drawings/Vector Originals"
   sodipodi:docname="Ingrid.svg"
   inkscape:output_extension="org.inkscape.output.svg.inkscape"
   version="1.0"
   inkscape:export-filename="/home/alexanderfb/My Documents/My Drawings/Vector Originals/Ingrid.png"
   inkscape:export-xdpi="45"
   inkscape:export-ydpi="45">
  <defs
     id="defs4" />
  <sodipodi:namedview
     id="base"
     pagecolor="#ffffff"
     bordercolor="#666666"
     borderopacity="1.0"
     gridtolerance="10000"
     guidetolerance="10"
     objecttolerance="10"
     inkscape:pageopacity="0.0"
     inkscape:pageshadow="2"
     inkscape:zoom="1"
     inkscape:cx="282.23825"
     inkscape:cy="406.62037"
     inkscape:document-units="px"
     inkscape:current-layer="layer1"
     inkscape:window-width="1280"
     inkscape:window-height="881"
     inkscape:window-x="1280"
     inkscape:window-y="52"
     width="300px"
     height="700px" />
  <metadata
     id="metadata7">
    <rdf:RDF>
      <cc:Work
         rdf:about="">
        <dc:format>image/svg+xml</dc:format>
        <dc:type
           rdf:resource="http://purl.org/dc/dcmitype/StillImage" />
      </cc:Work>
    </rdf:RDF>
  </metadata>
  <g
     inkscape:label="Layer 1"
     inkscape:groupmode="layer"
     id="layer1"
     style="display:inline">
    <path
       style="fill:#000000;fill-rule:evenodd;stroke:#000000;stroke-width:0.86090428px;stroke-linecap:butt;stroke-linejoin:miter;stroke-opacity:1"
       d="M 87.03459,602.73541 C 64.51208,599.01431 54.65792,605.37562 54.43745,617.98361 C 70.65032,617.30822 103.04304,617.64621 127.41094,617.50335 C 127.41964,606.5609 128.04084,581.76276 128.04084,568.96728 C 113.49023,568.28259 116.84651,569.01032 110.24627,568.9973 C 112.49637,583.74753 108.23633,598.42634 87.03459,602.73541 z "
       id="path2178"
       sodipodi:nodetypes="cccccc" />
    <path
       style="fill:#000000;fill-rule:evenodd;stroke:#000000;stroke-width:0.8601867px;stroke-linecap:butt;stroke-linejoin:miter;stroke-opacity:1;display:inline"
       d="M 197.9223,609.57703 C 220.52153,605.87473 230.40926,617.70388 230.63048,630.24814 L 201.76209,627.39832 L 164.40842,616.77031 C 164.39969,605.88317 163.77637,581.21039 163.77637,568.4796 C 178.37654,567.79837 175.00883,568.52242 181.63156,568.50947 C 179.3738,583.18514 176.64834,605.28974 197.9223,609.57703 z "
       id="path3206"
       sodipodi:nodetypes="ccccccc" />
    <path
       style="fill:#28170b;fill-rule:evenodd;stroke:#000000;stroke-width:1px;stroke-linecap:butt;stroke-linejoin:miter;stroke-opacity:1"
       d="M 108.70711,336.4426 C 105.99494,361.81511 103.55934,353.1431 103.14537,378.78468 C 102.73139,404.42627 107.3595,459.28846 106.03122,489.62997 C 104.6869,520.33794 100.22447,553.01701 94.36396,584.7179 C 111.91572,584.7179 123.64278,584.74648 135.83561,585.01403 C 132.13063,562.59103 137.18372,521.80013 136.30689,493.49607 C 136.30689,465.94276 144.0685,423.71204 150.12132,399.50075 C 160.04435,436.17618 155.24785,474.36554 155.24785,493.41316 C 156.98488,531.73425 156.01559,538.4013 150.16979,585.04274 C 174.20602,585.04274 180.04389,585.83268 196.97346,584.45946 C 189.47676,553.17735 188.35899,526.25646 188.46842,494.88481 C 186.59365,461.41104 196.43568,399.58205 194.4214,376.08905 C 192.40947,352.62351 191.59298,352.53723 191.59298,337.77066 C 191.59298,317.2534 183.97482,312.44889 170.82843,315.73549 C 150.05963,323.29277 131.11913,335.74356 108.70711,336.4426 z "
       id="path2176"
       sodipodi:nodetypes="czzcccccccczscc" />
    <path
       style="fill:#d40000;fill-rule:evenodd;stroke:#000000;stroke-width:1.14998865px;stroke-linecap:butt;stroke-linejoin:miter;stroke-opacity:1"
       d="M 148.0206,173.84448 C 63.91134,173.14248 78.30296,190.52341 78.97848,220.45546 C 82.61403,220.34426 102.89319,220.11911 107.49661,220.44598 C 107.42981,217.61049 108.30121,213.4564 109.37713,211.51006 C 109.143,215.04657 107.7078,219.73336 107.72282,223.76214 C 107.73784,227.72842 117.65795,274.62593 102.50025,349.39771 C 113.53249,354.66501 179.26156,351.10607 195.34015,349.93483 C 180.42622,276.6712 193.77369,228.86097 194.09683,225.03833 C 194.41948,221.22144 192.99626,212.48847 192.75988,210.55865 C 192.55902,208.91878 194.2139,217.49301 194.43252,219.72352 C 198.69978,219.61821 219.48604,219.25003 224.31108,219.24212 C 225.73324,182.11214 231.51491,172.14351 148.0206,173.84448 z "
       id="path2166"
       sodipodi:nodetypes="cccczcczsccc" />
    <g
       id="g2185"
       style="fill:#aa0000;stroke:none"
       transform="translate(-424.33304,-258.30509)">
      <path
         id="path2177"
         d="M 532.59375,482.75281 L 552.625,478.73718 L 576.5,486.48718 L 597.17373,480.1566 L 617.70007,483.6347 C 609.61322,524.87365 610.68769,571.48077 619.00509,607.71826 C 589.64277,609.65876 543.25401,612.76602 527.43027,607.39877 C 536.61778,562.27377 537.28125,517.81531 532.59375,482.75281 z "
         style="fill:#aa0000;fill-rule:evenodd;stroke:none;stroke-width:1px;stroke-linecap:butt;stroke-linejoin:miter;stroke-opacity:1"
         sodipodi:nodetypes="cccccccc" />
    </g>
    <rect
       style="fill:#b3b3b3;stroke:#000000;stroke-linejoin:round;stroke-opacity:1"
       id="rect2212"
       width="59.750523"
       height="70.180351"
       x="119.2124"
       y="244.90936"
       ry="9.1923885" />
    <path
       style="fill:#ffe6d5;fill-rule:evenodd;stroke:#000000;stroke-width:1px;stroke-linecap:butt;stroke-linejoin:miter;stroke-opacity:1"
       d="M 88.08753,278.64813 C 90.8571,289.72643 143.0176,288.02804 154.84853,286.9732 C 157.57159,288.47471 160.62047,289.12214 163.71932,289.09953 C 166.43142,289.07941 181.95741,287.07691 185.00971,284.37075 C 191.3717,281.96074 188.63802,275.69653 175.0815,273.78859 C 164.49327,271.67094 159.11349,274.32104 153.86179,274.02055 C 131.01592,272.71335 117.93555,267.1833 107.79394,267.9682 C 103.07889,257.69991 103.73816,247.97403 100.11456,220.30979 C 99.20947,220.31616 86.57033,220.20483 82.04666,220.34993 C 81.71732,245.3578 82.60295,252.13136 88.08753,278.64813 z "
       id="path2170"
       sodipodi:nodetypes="ccsccscccc" />
    <path
       style="fill:#800000;fill-rule:evenodd;stroke:#000000;stroke-width:1px;stroke-linecap:butt;stroke-linejoin:miter;stroke-opacity:1"
       d="M 134.10454,168.97471 C 124.76664,186.61713 113.61709,185.75098 101.93118,193.01634 C 92.13557,200.23023 91.038,198.49278 104.05251,196.3751 C 96.20451,204.49679 98.65603,199.29191 106.17382,197.96608 C 103.89136,204.25663 94.96516,204.67429 107.76481,201.14806 C 101.45516,209.66936 102.58567,204.75835 110.28388,202.07614 C 107.03345,209.99737 104.76568,209.12678 113.59844,204.6836 C 136.84304,196.44556 144.45226,183.04121 153.19642,167.56049 C 147.00225,168.21688 140.42345,170.31005 134.10454,168.97471 z "
       id="path3224"
       sodipodi:nodetypes="ccccccccc" />
    <path
       style="fill:#800000;fill-rule:evenodd;stroke:#000000;stroke-width:0.83230317px;stroke-linecap:butt;stroke-linejoin:miter;stroke-opacity:1"
       d="M 135.75455,156.69286 C 121.64584,153.31341 133.80599,163.17387 130.02167,171.58047 C 125.84689,180.85447 179.32843,178.6138 175.11391,172.95846 C 170.12574,166.26498 184.71094,157.60163 173.80703,157.07447 C 170.80202,156.92919 141.89752,158.16428 135.75455,156.69286 z "
       id="path2168"
       sodipodi:nodetypes="cssss" />
    <path
       style="fill:#000000;fill-rule:evenodd;stroke:#000000;stroke-width:0.778045px;stroke-linecap:butt;stroke-linejoin:miter;stroke-opacity:1"
       d="M 101.44763,135.9759 C 94.6275,88.34528 102.10277,44.94661 154.69535,52.66582 C 214.82904,53.23285 199.15937,96.28402 198.31525,138.33374 C 200.50766,141.39756 202.21662,144.76081 204.20983,147.96156 C 196.98189,146.26456 196.0875,142.35093 194.43465,140.74069 C 193.77296,149.82035 201.09703,156.22719 190.4558,142.45994 C 190.21642,156.24694 194.7244,153.17327 183.3627,141.98848 C 181.83777,156.91242 192.45464,159.18229 173.83314,144.98489 C 186.43658,127.17745 139.99966,147.28329 139.62791,149.71392 C 110.03728,153.99611 120.39268,161.32536 123.75066,144.15373 C 105.10115,154.58357 111.51019,155.12057 119.51584,139.87633 C 102.60031,148.61265 105.48325,155.09126 111.07544,138.92319 C 95.93825,142.95101 101.68786,150.64918 101.44763,135.9759 z "
       id="path2188"
       sodipodi:nodetypes="ccccccccccccc" />
    <path
       style="fill:#ffe6d5;fill-rule:evenodd;stroke:#000000;stroke-width:0.778045px;stroke-linecap:butt;stroke-linejoin:miter;stroke-opacity:1"
       d="M 185.49308,130.83342 C 188.11375,120.35071 187.71606,109.08706 187.71606,97.48863 C 187.71606,82.02279 187.8972,77.61762 178.82412,70.8128 C 172.08026,65.75491 156.42655,68.58982 147.70232,68.58982 C 132.92487,68.58982 127.09581,72.01206 121.02648,84.15072 C 116.63711,92.92947 116.37247,99.26458 116.37247,108.26066 C 123.54831,172.20852 162.5826,194.01182 185.49308,130.83342 z "
       id="path2162"
       sodipodi:nodetypes="csssscc" />
    <path
       style="fill:#000000;fill-rule:evenodd;stroke:#000000;stroke-width:0.778045px;stroke-linecap:butt;stroke-linejoin:miter;stroke-opacity:1"
       d="M 89.56312,104.7823 C 91.82905,104.7823 95.3296,103.46445 97.51791,102.76976 C 94.88867,106.08324 93.20339,105.93232 89.30908,108.92826 C 98.07856,108.40292 100.2607,107.60492 103.80546,106.89597 C 101.201,108.85944 97.23045,113.45231 93.95323,114.60251 C 134.96501,119.16224 168.27787,79.33424 153.61828,64.93344 C 139.02922,50.60193 116.2649,82.94512 89.56312,104.7823 z "
       id="path2186"
       sodipodi:nodetypes="ccccczc" />
    <path
       style="fill:#000000;fill-rule:evenodd;stroke:#000000;stroke-width:0.778045px;stroke-linecap:butt;stroke-linejoin:miter;stroke-opacity:1"
       d="M 189.0048,112.73131 C 189.4752,112.12134 191.31933,108.59707 191.45798,107.47964 C 191.82239,108.09949 192.25722,107.89788 192.89119,111.81244 C 212.0735,74.44345 168.02534,56.12321 156.72763,65.28861 C 145.34593,74.52215 167.84141,74.40109 189.0048,112.73131 z "
       id="path2190"
       sodipodi:nodetypes="ccczc" />
    <path
       style="fill:#ffe6d5;fill-rule:evenodd;stroke:#000000;stroke-width:1px;stroke-linecap:butt;stroke-linejoin:miter;stroke-opacity:1;display:inline"
       d="M 201.2873,275.92738 C 204.05687,287.00568 199.95818,325.12623 202.59672,341.92584 C 197.90933,351.36785 202.36087,366.78149 208.18594,366.01666 C 214.01496,365.25131 215.35291,353.19134 215.75862,351.36864 C 216.15972,349.56663 216.0587,345.71286 214.69146,340.81723 C 215.56953,323.92692 217.70029,290.6255 218.69561,275.85405 C 221.40518,263.99477 222.24123,247.19782 218.61763,219.53358 C 217.71254,219.53995 205.0734,219.42862 200.54973,219.57372 C 200.22039,244.58159 199.33825,255.59779 201.2873,275.92738 z "
       id="path3200"
       sodipodi:nodetypes="cczzccccc" />
    <g
       id="g3212"
       transform="matrix(0.9401377,0,0,0.778045,-206.54899,-141.48626)">
      <path
         d="M 370.5 323.61218 A 3.75 4.25 0 1 1  363,323.61218 A 3.75 4.25 0 1 1  370.5 323.61218 z"
         sodipodi:ry="4.25"
         sodipodi:rx="3.75"
         sodipodi:cy="323.61218"
         sodipodi:cx="366.75"
         id="path3208"
         style="fill:#000000;stroke:#000000;stroke-linejoin:round;stroke-opacity:1"
         sodipodi:type="arc" />
      <path
         sodipodi:nodetypes="ccc"
         id="path3210"
         d="M 369.375,320.48718 C 366.14865,317.92129 360.53546,317.24355 356.9375,319.36218 C 356.83774,319.38214 356.61967,319.36218 356.5,319.36218"
         style="fill:none;fill-rule:evenodd;stroke:#000000;stroke-width:1px;stroke-linecap:butt;stroke-linejoin:miter;stroke-opacity:1" />
    </g>
    <g
       style="display:inline"
       id="g3216"
       transform="matrix(0.9401377,0,0,0.778045,-176.1566,-141.872)">
      <path
         d="M 370.5 323.61218 A 3.75 4.25 0 1 1  363,323.61218 A 3.75 4.25 0 1 1  370.5 323.61218 z"
         sodipodi:ry="4.25"
         sodipodi:rx="3.75"
         sodipodi:cy="323.61218"
         sodipodi:cx="366.75"
         id="path3218"
         style="fill:#000000;stroke:#000000;stroke-linejoin:round;stroke-opacity:1"
         sodipodi:type="arc" />
      <path
         sodipodi:nodetypes="ccc"
         id="path3220"
         d="M 369.375,320.48718 C 366.14865,317.92129 360.53546,317.24355 356.9375,319.36218 C 356.83774,319.38214 356.61967,319.36218 356.5,319.36218"
         style="fill:none;fill-rule:evenodd;stroke:#000000;stroke-width:1px;stroke-linecap:butt;stroke-linejoin:miter;stroke-opacity:1" />
    </g>
    <path
       style="fill:none;fill-rule:evenodd;stroke:#000000;stroke-width:0.778045px;stroke-linecap:butt;stroke-linejoin:miter;stroke-opacity:1"
       d="M 151.7677,128.07717 C 152.29153,128.87399 153.31158,131.50187 153.76204,132.20337 C 153.32497,132.47599 152.7291,133.02862 151.14877,134.06017"
       id="path3222"
       sodipodi:nodetypes="ccc" />
  </g>
</svg>
