<?xml version="1.0" encoding="UTF-8" standalone="no"?>
<!-- Created with Inkscape (http://www.inkscape.org/) -->
<svg
   xmlns:dc="http://purl.org/dc/elements/1.1/"
   xmlns:cc="http://creativecommons.org/ns#"
   xmlns:rdf="http://www.w3.org/1999/02/22-rdf-syntax-ns#"
   xmlns:svg="http://www.w3.org/2000/svg"
   xmlns="http://www.w3.org/2000/svg"
   xmlns:sodipodi="http://sodipodi.sourceforge.net/DTD/sodipodi-0.dtd"
   xmlns:inkscape="http://www.inkscape.org/namespaces/inkscape"
   width="640"
   height="480"
   id="svg2"
   sodipodi:version="0.32"
   inkscape:version="0.46"
   version="1.0"
   sodipodi:docname="Hilda Cut-Off.svg"
   inkscape:output_extension="org.inkscape.output.svg.inkscape">
  <defs
     id="defs4">
    <inkscape:perspective
       sodipodi:type="inkscape:persp3d"
       inkscape:vp_x="0 : 526.18109 : 1"
       inkscape:vp_y="0 : 1000 : 0"
       inkscape:vp_z="744.09448 : 526.18109 : 1"
       inkscape:persp3d-origin="372.04724 : 350.78739 : 1"
       id="perspective10" />
  </defs>
  <sodipodi:namedview
     id="base"
     pagecolor="#ffffff"
     bordercolor="#666666"
     borderopacity="1.0"
     gridtolerance="10000"
     guidetolerance="10"
     objecttolerance="10"
     inkscape:pageopacity="0.0"
     inkscape:pageshadow="2"
     inkscape:zoom="1.4"
     inkscape:cx="456.435"
     inkscape:cy="268.46316"
     inkscape:document-units="px"
     inkscape:current-layer="layer2"
     showgrid="false"
     borderlayer="false"
     inkscape:showpageshadow="true"
     inkscape:window-width="1280"
     inkscape:window-height="881"
     inkscape:window-x="1280"
     inkscape:window-y="54" />
  <metadata
     id="metadata7">
    <rdf:RDF>
      <cc:Work
         rdf:about="">
        <dc:format>image/svg+xml</dc:format>
        <dc:type
           rdf:resource="http://purl.org/dc/dcmitype/StillImage" />
      </cc:Work>
    </rdf:RDF>
  </metadata>
  <g
     inkscape:groupmode="layer"
     id="layer3"
     inkscape:label="Hair"
     style="display:inline">
    <path
       style="fill:#000000;fill-rule:evenodd;stroke:#000000;stroke-width:1px;stroke-linecap:butt;stroke-linejoin:miter;stroke-opacity:1"
       d="M 657.85714,98.571428 C 412.96865,63.885863 158.55739,132.20064 166.42857,350.71429 C 174.93409,465.54853 198.14653,505.21402 223.57143,533.57143 L 675,525.71429 L 675.71429,131.42857 L 657.85714,98.571428 z"
       id="path2398"
       sodipodi:nodetypes="cccccc" />
  </g>
  <g
     inkscape:groupmode="layer"
     id="layer2"
     inkscape:label="Hairpiece"
     style="display:inline">
    <path
       style="fill:#c8beb7;fill-rule:evenodd;stroke:#000000;stroke-width:1px;stroke-linecap:butt;stroke-linejoin:miter;stroke-opacity:1"
       d="M 305.35714,176.42857 C 374.56074,141.65331 452.26101,117.49889 559.28571,130 L 557.85714,183.57143 L 334.64286,235.71428 L 305.35714,176.42857 z"
       id="path2444"
       sodipodi:nodetypes="ccccc" />
    <path
       style="fill:#ffffff;fill-rule:evenodd;stroke:#000000;stroke-width:1px;stroke-linecap:butt;stroke-linejoin:miter;stroke-opacity:1"
       d="M 551.97042,216.16456 L 553.40514,129.48577 C 573.09641,124.62784 607.02212,120.40383 633.79277,140.63952 L 623.06362,206.89987 L 551.97042,216.16456 z"
       id="path2385"
       sodipodi:nodetypes="ccccc" />
    <path
       style="fill:#ffffff;fill-rule:evenodd;stroke:#000000;stroke-width:1px;stroke-linecap:butt;stroke-linejoin:miter;stroke-opacity:1"
       d="M 527.42218,217.24033 L 526.44793,126.57171 C 497.09758,117.46187 470.20497,118.72036 444.74813,131.29506 L 455.74596,218.47457 L 527.42218,217.24033 z"
       id="path2387"
       sodipodi:nodetypes="ccccc" />
    <path
       style="fill:#ffffff;fill-rule:evenodd;stroke:#000000;stroke-width:1px;stroke-linecap:butt;stroke-linejoin:miter;stroke-opacity:1"
       d="M 338.93157,160.1457 C 362.4238,134.5908 388.48786,130.76147 416.70895,136.45786 L 436.07517,227.6526 L 381.78691,243.64172 L 338.93157,160.1457 z"
       id="path2389"
       sodipodi:nodetypes="ccccc" />
    <path
       style="fill:#ffffff;fill-rule:evenodd;stroke:#000000;stroke-width:1px;stroke-linecap:butt;stroke-linejoin:miter;stroke-opacity:1;display:inline"
       d="M 238.74962,225.8102 C 246.53744,207.24068 268.64821,174.64543 307.59843,175.69379 L 350.53608,251.88853 L 294.10497,290.0205 L 238.74962,225.8102 z"
       id="path2420"
       sodipodi:nodetypes="ccccc" />
    <path
       style="fill:#ffffff;fill-rule:evenodd;stroke:#000000;stroke-width:1px;stroke-linecap:butt;stroke-linejoin:miter;stroke-opacity:1;display:inline"
       d="M 187.32106,335.09591 C 187.17543,322.69058 189.17264,288.13764 216.16987,262.12236 L 279.10752,322.60281 L 254.81926,368.59193 L 187.32106,335.09591 z"
       id="path2422"
       sodipodi:nodetypes="ccccc" />
  </g>
  <g
     inkscape:label="Layer 1"
     inkscape:groupmode="layer"
     id="layer1"
     style="display:inline">
    <path
       style="fill:#ffe6d5;fill-rule:evenodd;stroke:#000000;stroke-width:1px;stroke-linecap:butt;stroke-linejoin:miter;stroke-opacity:1"
       d="M 283.38369,313.00794 C 405.8628,283.2774 530.0615,213.12351 643.97225,267.36289 L 643.97224,482.52538 L 308.18934,495.55583 C 295.35406,425.57307 276.51456,343.58188 283.38369,313.00794 z"
       id="path2383"
       sodipodi:nodetypes="ccccc" />
    <path
       style="fill:#000000;fill-rule:evenodd;stroke:#000000;stroke-width:1px;stroke-linecap:butt;stroke-linejoin:miter;stroke-opacity:1"
       d="M 378.40365,303.51302 C 370.1158,377.35061 371.50094,393.24823 372.84781,434.32777 C 359.19,396.35709 342.96258,362.88323 339.51278,307.04855 C 330.52225,370.88651 326.41481,394.66253 309.47433,425.90863 C 313.92429,379.26875 306.5205,354.95262 297.08637,312.09931 C 279.14968,357.78927 296.3957,445.82694 320.03634,510.161 C 277.10506,473.51325 230.94309,404.86018 239.40616,350.19539 C 269.7235,154.36906 611.25802,166.24994 657.44687,207.76389 L 637.55854,258.48943 C 616.12207,243.71228 621.4032,251.1998 614.32504,248.38791 C 637.82982,270.61127 631.10075,292.83462 636.54839,315.05798 C 626.33311,297.19688 626.92258,286.76405 597.15244,255.45898 C 588.5842,292.27171 621.78072,325.10684 638.5687,359.50469 C 590.40953,338.42006 554.83733,311.07769 520.38085,271.62142 C 492.41504,350.73178 460.98214,439.94648 398.0001,484.04061 C 436.52123,423.13197 460.45482,333.53733 451.69048,285.76355 C 434.90745,321.33028 414.23621,341.34414 392.09148,355.46408 C 402.94028,339.68133 425.43192,316.76626 418.86051,289.29908 C 404.79532,300.80513 397.02656,324.2076 386.98995,350.48511 C 381.87295,336.20694 383.57205,317.18762 378.40365,303.51302 z"
       id="path2395"
       sodipodi:nodetypes="ccccccsccccccccccccc" />
  </g>
</svg>
